# xmcd
#
# Track frame offsets:
#       150
#       20741
#       40801
#       52945
#       66962
#       87971
#       100224
#       113884
#       133648
#       151199
#       166346
#
# Disc length: 2467 seconds
#
# Revision: 0
# Processed by: cddbd v1.4PL0 Copyright (c) Steve Scherf et al.
# Submitted via: WhereIsIt 3.26
#
DISCID=8909a10b
DTITLE=Joan Baez - Diamond and Rust
DYEAR=1900
DGENRE=
TTITLE0=Diamonds and Rust
TTITLE1=Fountain of Sorrow
TTITLE2=Never Dreamed You'd Leave In Summer
TTITLE3=Children and All That Jazz
TTITLE4=Simple Twist of Fate
TTITLE5=Blue Sky
TTITLE6=Hello In There
TTITLE7=Jesse
TTITLE8=Windws Of The Old Days
TTITLE9=Dida
TTITLE10=I Dream Of Jeannie Danny Boy
EXTD=I Ripped from LP
EXTT0=
EXTT1=
EXTT2=
EXTT3=
EXTT4=
EXTT5=
EXTT6=
EXTT7=
EXTT8=
EXTT9=
EXTT10=
PLAYORDER=
